# xmcd
#
# Track frame offsets:
#	150
#	16206
#	26039
#	38036
#	48879
#	61051
#	69215
#	82312
#	94045
#	106397
#	118184
#	131354
#	140810
#	153557
#	167471
#	180609
#	194454
#	209225
#	219072
#	232229
#
# Disc length: 3253 seconds
#
# Revision: 0
# Processed by: cddbd v1.5.2PL0 Copyright (c) Steve Scherf et al.
# Submitted via: audiograbber 1.83.01
#
DISCID=1c0cb314
DTITLE=Country-Les Coffrets en Or - Les Coffrets en Or - Country - CD3
DYEAR=2009
DGENRE=Country
TTITLE0=01 - Exile - Kiss you all over
TTITLE1=02 - Dave Dudley - Truck divin' son of a gun
TTITLE2=03 - Willie Nelson - I hope so
TTITLE3=04 - Kenny Rogers - She even woke me up to say goodbye
TTITLE4=05 - Jeanne Pruett - Back to back
TTITLE5=06 - Johnny Cash - The wreck of the old' 97
TTITLE6=07 - Hank Snow - I'm movin' on
TTITLE7=08 - Don Gibson - Give myselg a party
TTITLE8=09 - Hank Williams - You cheatin' heart
TTITLE9=10 - Kenny Rogers - Elvira
TTITLE10=11 - Jack Greene - Statue of a fool
TTITLE11=12 - Waylon Jennings - When sin stops
TTITLE12=13 - Johnny Cash - Folson Prison Blues
TTITLE13=14 - Lynn Anderson - Two doors down
TTITLE14=15 - Kenny Rogers - Ruby don't take your love to town
TTITLE15=16 - Willie Nelson - Everything but you
TTITLE16=17 - TG Shepard - Only one you
TTITLE17=18 - Hank Locklin - Geisha girl
TTITLE18=19 - Ferlin Husky  - I'd be a légend in my time
TTITLE19=20 - Johnny Cash - Doin' my time
EXTD=
EXTT0=
EXTT1=
EXTT2=
EXTT3=
EXTT4=
EXTT5=
EXTT6=
EXTT7=
EXTT8=
EXTT9=
EXTT10=
EXTT11=
EXTT12=
EXTT13=
EXTT14=
EXTT15=
EXTT16=
EXTT17=
EXTT18=
EXTT19=
PLAYORDER=
